<mxfile host="app.diagrams.net" modified="2021-07-23T15:40:15.262Z" agent="5.0 (X11; Linux x86_64) AppleWebKit/537.36 (KHTML, like Gecko) Chrome/91.0.4472.114 Safari/537.36" etag="Insh3Sn8EvoiWuoHDXiT" version="14.9.0" type="github">
  <diagram id="kuEGRkW_MY6x3EW_wBt1" name="Page-1">
    <mxGraphModel dx="1422" dy="806" grid="1" gridSize="10" guides="1" tooltips="1" connect="1" arrows="1" fold="1" page="1" pageScale="1" pageWidth="1654" pageHeight="2336" background="#182E3E" math="0" shadow="0">
      <root>
        <mxCell id="0" />
        <mxCell id="1" parent="0" />
        <mxCell id="oGfjhjowSKPKWQti_45B-2" value="" style="rounded=1;whiteSpace=wrap;html=1;sketch=0;fontColor=#1A1A1A;strokeColor=#FFFFFF;fillColor=#EEEEEE;" vertex="1" parent="1">
          <mxGeometry x="599.1800000000001" y="240" width="240" height="80" as="geometry" />
        </mxCell>
        <mxCell id="oGfjhjowSKPKWQti_45B-5" value="" style="shape=image;html=1;verticalAlign=top;verticalLabelPosition=bottom;labelBackgroundColor=#ffffff;imageAspect=0;aspect=fixed;image=https://cdn3.iconfinder.com/data/icons/logos-and-brands-adobe/512/267_Python-128.png;rounded=0;sketch=0;fontColor=#1A1A1A;strokeColor=#FFFFFF;fillColor=#EEEEEE;" vertex="1" parent="1">
          <mxGeometry x="749.1800000000001" y="250" width="59.5" height="59.5" as="geometry" />
        </mxCell>
        <mxCell id="oGfjhjowSKPKWQti_45B-58" style="edgeStyle=none;rounded=1;sketch=0;orthogonalLoop=1;jettySize=auto;html=1;fontColor=#FFFFFF;startArrow=none;startFill=0;strokeColor=#FFFFFF;strokeWidth=2;" edge="1" parent="1" source="oGfjhjowSKPKWQti_45B-6">
          <mxGeometry relative="1" as="geometry">
            <mxPoint x="719" y="560" as="targetPoint" />
          </mxGeometry>
        </mxCell>
        <mxCell id="oGfjhjowSKPKWQti_45B-6" value="&lt;font color=&quot;#ffffff&quot; size=&quot;1&quot;&gt;&lt;b style=&quot;font-size: 16px&quot;&gt;&amp;nbsp;REST API BACKEND&lt;/b&gt;&lt;/font&gt;" style="text;html=1;strokeColor=none;fillColor=none;align=center;verticalAlign=middle;whiteSpace=wrap;rounded=0;sketch=0;fontColor=#1A1A1A;" vertex="1" parent="1">
          <mxGeometry x="634.1800000000001" y="330" width="170" height="40" as="geometry" />
        </mxCell>
        <mxCell id="oGfjhjowSKPKWQti_45B-7" value="&lt;b&gt;&lt;font color=&quot;#000000&quot; style=&quot;font-size: 18px&quot;&gt;DJANGO&lt;/font&gt;&lt;/b&gt;" style="text;html=1;strokeColor=none;fillColor=none;align=center;verticalAlign=middle;whiteSpace=wrap;rounded=0;sketch=0;fontColor=#1A1A1A;" vertex="1" parent="1">
          <mxGeometry x="610" y="257.5" width="130" height="45" as="geometry" />
        </mxCell>
        <mxCell id="oGfjhjowSKPKWQti_45B-9" value="" style="outlineConnect=0;dashed=0;verticalLabelPosition=bottom;verticalAlign=top;align=center;html=1;shape=mxgraph.aws3.android;fillColor=#FFD44F;gradientColor=none;rounded=0;sketch=0;fontColor=#1A1A1A;strokeColor=#FFFFFF;" vertex="1" parent="1">
          <mxGeometry x="704.9999999999999" y="625" width="78.37" height="90" as="geometry" />
        </mxCell>
        <mxCell id="oGfjhjowSKPKWQti_45B-10" value="&lt;font color=&quot;#ffffff&quot; style=&quot;font-size: 18px&quot;&gt;&lt;b&gt;Python Application&lt;/b&gt;&lt;/font&gt;" style="text;html=1;strokeColor=none;fillColor=none;align=center;verticalAlign=middle;whiteSpace=wrap;rounded=0;sketch=0;fontColor=#1A1A1A;" vertex="1" parent="1">
          <mxGeometry x="609.9999999999999" y="760" width="170" height="40" as="geometry" />
        </mxCell>
        <mxCell id="oGfjhjowSKPKWQti_45B-12" value="" style="shape=image;html=1;verticalAlign=top;verticalLabelPosition=bottom;labelBackgroundColor=#ffffff;imageAspect=0;aspect=fixed;image=https://cdn2.iconfinder.com/data/icons/whcompare-isometric-web-hosting-servers/50/root-access-128.png;rounded=0;sketch=0;fontColor=#1A1A1A;strokeColor=#FFFFFF;fillColor=#EEEEEE;" vertex="1" parent="1">
          <mxGeometry x="534.9999999999999" y="575" width="160" height="160" as="geometry" />
        </mxCell>
        <mxCell id="oGfjhjowSKPKWQti_45B-31" style="edgeStyle=orthogonalEdgeStyle;curved=0;rounded=1;sketch=0;orthogonalLoop=1;jettySize=auto;html=1;exitX=0;exitY=0.5;exitDx=0;exitDy=0;fontColor=#FFFFFF;strokeColor=#FFFFFF;" edge="1" parent="1" source="oGfjhjowSKPKWQti_45B-13">
          <mxGeometry relative="1" as="geometry">
            <mxPoint x="800" y="600" as="targetPoint" />
          </mxGeometry>
        </mxCell>
        <mxCell id="oGfjhjowSKPKWQti_45B-13" value="&lt;b&gt;&lt;font style=&quot;font-size: 14px&quot;&gt;Text Mode&lt;/font&gt;&lt;/b&gt;" style="ellipse;whiteSpace=wrap;html=1;rounded=0;sketch=0;fontColor=#1A1A1A;strokeColor=#FFFFFF;fillColor=#EEEEEE;" vertex="1" parent="1">
          <mxGeometry x="1070" y="560" width="120" height="80" as="geometry" />
        </mxCell>
        <mxCell id="oGfjhjowSKPKWQti_45B-14" value="&lt;font style=&quot;font-size: 14px&quot;&gt;&lt;b&gt;Voice&lt;br&gt;Mode&lt;/b&gt;&lt;/font&gt;" style="ellipse;whiteSpace=wrap;html=1;rounded=0;sketch=0;fontColor=#1A1A1A;strokeColor=#FFFFFF;fillColor=#EEEEEE;" vertex="1" parent="1">
          <mxGeometry x="1070" y="700" width="120" height="80" as="geometry" />
        </mxCell>
        <mxCell id="oGfjhjowSKPKWQti_45B-59" style="edgeStyle=none;rounded=1;sketch=0;orthogonalLoop=1;jettySize=auto;html=1;fontColor=#FFFFFF;startArrow=none;startFill=0;strokeColor=#FFFFFF;entryX=0.358;entryY=0.975;entryDx=0;entryDy=0;entryPerimeter=0;strokeWidth=2;" edge="1" parent="1" target="oGfjhjowSKPKWQti_45B-6">
          <mxGeometry relative="1" as="geometry">
            <mxPoint x="695" y="560" as="sourcePoint" />
            <mxPoint x="695" y="380" as="targetPoint" />
          </mxGeometry>
        </mxCell>
        <mxCell id="oGfjhjowSKPKWQti_45B-16" value="&lt;font color=&quot;#ffffff&quot; style=&quot;font-size: 18px&quot;&gt;&lt;b&gt;VPDA&lt;/b&gt;&lt;/font&gt;" style="text;html=1;strokeColor=none;fillColor=none;align=center;verticalAlign=middle;whiteSpace=wrap;rounded=0;sketch=0;fontColor=#1A1A1A;" vertex="1" parent="1">
          <mxGeometry x="630" y="590" width="110" height="50" as="geometry" />
        </mxCell>
        <mxCell id="oGfjhjowSKPKWQti_45B-18" value="" style="shape=image;html=1;verticalAlign=top;verticalLabelPosition=bottom;labelBackgroundColor=#ffffff;imageAspect=0;aspect=fixed;image=https://cdn2.iconfinder.com/data/icons/whcompare-isometric-web-hosting-servers/50/web-browser-on-laptop-128.png;rounded=0;sketch=0;fontColor=#1A1A1A;strokeColor=#FFFFFF;fillColor=#EEEEEE;" vertex="1" parent="1">
          <mxGeometry x="1080" y="380" width="100" height="100" as="geometry" />
        </mxCell>
        <mxCell id="oGfjhjowSKPKWQti_45B-21" value="" style="endArrow=classic;html=1;fontColor=#FFFFFF;strokeColor=#FFFFFF;" edge="1" parent="1">
          <mxGeometry width="50" height="50" relative="1" as="geometry">
            <mxPoint x="1270" y="600" as="sourcePoint" />
            <mxPoint x="1200" y="600" as="targetPoint" />
          </mxGeometry>
        </mxCell>
        <mxCell id="oGfjhjowSKPKWQti_45B-22" value="" style="endArrow=classic;html=1;fontColor=#FFFFFF;strokeColor=#FFFFFF;" edge="1" parent="1">
          <mxGeometry width="50" height="50" relative="1" as="geometry">
            <mxPoint x="1270" y="740" as="sourcePoint" />
            <mxPoint x="1200" y="740" as="targetPoint" />
          </mxGeometry>
        </mxCell>
        <mxCell id="oGfjhjowSKPKWQti_45B-23" value="" style="endArrow=classic;html=1;fontColor=#FFFFFF;strokeColor=#FFFFFF;" edge="1" parent="1">
          <mxGeometry width="50" height="50" relative="1" as="geometry">
            <mxPoint x="1270" y="440" as="sourcePoint" />
            <mxPoint x="1200" y="440" as="targetPoint" />
          </mxGeometry>
        </mxCell>
        <mxCell id="oGfjhjowSKPKWQti_45B-24" value="&lt;font color=&quot;#ffffff&quot; style=&quot;font-size: 14px&quot;&gt;&lt;b&gt;Django Web &lt;br&gt;App&lt;/b&gt;&lt;/font&gt;" style="text;html=1;strokeColor=none;fillColor=none;align=center;verticalAlign=middle;whiteSpace=wrap;rounded=0;sketch=0;fontColor=#1A1A1A;" vertex="1" parent="1">
          <mxGeometry x="1140" y="360" width="130" height="32.5" as="geometry" />
        </mxCell>
        <mxCell id="oGfjhjowSKPKWQti_45B-25" value="" style="dashed=0;outlineConnect=0;html=1;align=center;labelPosition=center;verticalLabelPosition=bottom;verticalAlign=top;shape=mxgraph.weblogos.chrome;rounded=0;sketch=0;fontColor=#1A1A1A;strokeColor=#FFFFFF;fillColor=#EEEEEE;" vertex="1" parent="1">
          <mxGeometry x="1040" y="370" width="50" height="50" as="geometry" />
        </mxCell>
        <mxCell id="oGfjhjowSKPKWQti_45B-27" value="" style="strokeWidth=2;html=1;shape=mxgraph.flowchart.database;whiteSpace=wrap;rounded=0;sketch=0;fontColor=#1A1A1A;fillColor=#EEEEEE;" vertex="1" parent="1">
          <mxGeometry x="420.00000000000006" y="240" width="89.18" height="80" as="geometry" />
        </mxCell>
        <mxCell id="oGfjhjowSKPKWQti_45B-28" style="edgeStyle=orthogonalEdgeStyle;curved=0;rounded=1;sketch=0;orthogonalLoop=1;jettySize=auto;html=1;exitX=0;exitY=0.5;exitDx=0;exitDy=0;entryX=0;entryY=1;entryDx=0;entryDy=0;fontColor=#FFFFFF;strokeColor=#FFFFFF;" edge="1" parent="1" source="oGfjhjowSKPKWQti_45B-5" target="oGfjhjowSKPKWQti_45B-5">
          <mxGeometry relative="1" as="geometry" />
        </mxCell>
        <mxCell id="oGfjhjowSKPKWQti_45B-29" value="" style="strokeWidth=2;html=1;shape=mxgraph.flowchart.database;whiteSpace=wrap;rounded=0;sketch=0;fontColor=#1A1A1A;fillColor=#EEEEEE;" vertex="1" parent="1">
          <mxGeometry x="310.82000000000005" y="675" width="89.18" height="80" as="geometry" />
        </mxCell>
        <mxCell id="oGfjhjowSKPKWQti_45B-30" value="&lt;font color=&quot;#ffffff&quot; style=&quot;font-size: 14px&quot;&gt;Cloud&lt;br&gt;Speech-to-Text&lt;/font&gt;" style="html=1;fillColor=#5184F3;strokeColor=none;verticalAlign=top;labelPosition=center;verticalLabelPosition=bottom;align=center;spacingTop=-6;fontSize=11;fontStyle=1;fontColor=#999999;shape=mxgraph.gcp2.hexIcon;prIcon=cloud_speech_api;rounded=0;sketch=0;" vertex="1" parent="1">
          <mxGeometry x="299.18" y="470" width="120.82" height="100" as="geometry" />
        </mxCell>
        <mxCell id="oGfjhjowSKPKWQti_45B-32" value="" style="shape=image;html=1;verticalAlign=top;verticalLabelPosition=bottom;labelBackgroundColor=#ffffff;imageAspect=0;aspect=fixed;image=https://cdn4.iconfinder.com/data/icons/desktop-app-free/32/Desktop_Desktop_App_Keyboard_PC_Technology-12-128.png;rounded=0;sketch=0;fontColor=#1A1A1A;strokeColor=#FFFFFF;fillColor=#EEEEEE;" vertex="1" parent="1">
          <mxGeometry x="1310" y="547.5" width="80" height="80" as="geometry" />
        </mxCell>
        <mxCell id="oGfjhjowSKPKWQti_45B-33" value="&lt;font color=&quot;#ffffff&quot; style=&quot;font-size: 14px&quot;&gt;&lt;b&gt;Text Command&lt;/b&gt;&lt;/font&gt;" style="text;html=1;strokeColor=none;fillColor=none;align=center;verticalAlign=middle;whiteSpace=wrap;rounded=0;sketch=0;fontColor=#1A1A1A;" vertex="1" parent="1">
          <mxGeometry x="1285" y="625" width="130" height="30" as="geometry" />
        </mxCell>
        <mxCell id="oGfjhjowSKPKWQti_45B-34" value="" style="shape=image;html=1;verticalAlign=top;verticalLabelPosition=bottom;labelBackgroundColor=#ffffff;imageAspect=0;aspect=fixed;image=https://cdn1.iconfinder.com/data/icons/feather-2/24/mic-128.png;rounded=0;sketch=0;fontColor=#1A1A1A;strokeColor=#FFFFFF;fillColor=#EEEEEE;" vertex="1" parent="1">
          <mxGeometry x="1310" y="680" width="80" height="80" as="geometry" />
        </mxCell>
        <mxCell id="oGfjhjowSKPKWQti_45B-40" value="&lt;font color=&quot;#ffffff&quot; style=&quot;font-size: 14px&quot;&gt;&lt;b&gt;Voice Command&lt;/b&gt;&lt;/font&gt;" style="text;html=1;strokeColor=none;fillColor=none;align=center;verticalAlign=middle;whiteSpace=wrap;rounded=0;sketch=0;fontColor=#1A1A1A;" vertex="1" parent="1">
          <mxGeometry x="1285" y="770" width="130" height="30" as="geometry" />
        </mxCell>
        <mxCell id="oGfjhjowSKPKWQti_45B-41" value="" style="shape=image;html=1;verticalAlign=top;verticalLabelPosition=bottom;labelBackgroundColor=#ffffff;imageAspect=0;aspect=fixed;image=https://cdn1.iconfinder.com/data/icons/feather-2/24/mic-128.png;rounded=0;sketch=0;strokeColor=#FFFFFF;fillColor=#EEEEEE;fontColor=#FFFFFF;" vertex="1" parent="1">
          <mxGeometry x="1310" y="360" width="80" height="80" as="geometry" />
        </mxCell>
        <mxCell id="oGfjhjowSKPKWQti_45B-42" value="&lt;font color=&quot;#ffffff&quot; style=&quot;font-size: 14px&quot;&gt;&lt;b&gt;Voice Command&lt;/b&gt;&lt;/font&gt;" style="text;html=1;strokeColor=none;fillColor=none;align=center;verticalAlign=middle;whiteSpace=wrap;rounded=0;sketch=0;fontColor=#1A1A1A;" vertex="1" parent="1">
          <mxGeometry x="1285" y="450" width="130" height="30" as="geometry" />
        </mxCell>
        <mxCell id="oGfjhjowSKPKWQti_45B-43" value="&lt;font color=&quot;#ffffff&quot; style=&quot;font-size: 14px&quot;&gt;&lt;b&gt;Remote Mode&lt;/b&gt;&lt;/font&gt;" style="text;html=1;strokeColor=none;fillColor=none;align=center;verticalAlign=middle;whiteSpace=wrap;rounded=0;sketch=0;fontColor=#1A1A1A;" vertex="1" parent="1">
          <mxGeometry x="1065" y="490" width="130" height="30" as="geometry" />
        </mxCell>
        <mxCell id="oGfjhjowSKPKWQti_45B-45" value="" style="endArrow=classic;html=1;fontColor=#FFFFFF;strokeColor=#FFFFFF;" edge="1" parent="1">
          <mxGeometry width="50" height="50" relative="1" as="geometry">
            <mxPoint x="1030" y="390" as="sourcePoint" />
            <mxPoint x="860" y="320" as="targetPoint" />
          </mxGeometry>
        </mxCell>
        <mxCell id="oGfjhjowSKPKWQti_45B-47" value="" style="endArrow=classic;html=1;fontColor=#FFFFFF;strokeColor=#FFFFFF;" edge="1" parent="1">
          <mxGeometry width="50" height="50" relative="1" as="geometry">
            <mxPoint x="850" y="340" as="sourcePoint" />
            <mxPoint x="1020" y="410" as="targetPoint" />
          </mxGeometry>
        </mxCell>
        <mxCell id="oGfjhjowSKPKWQti_45B-48" value="&lt;font color=&quot;#ffffff&quot; style=&quot;font-size: 14px&quot;&gt;&lt;b&gt;PostgreSQL DB&lt;/b&gt;&lt;/font&gt;" style="text;html=1;strokeColor=none;fillColor=none;align=center;verticalAlign=middle;whiteSpace=wrap;rounded=0;sketch=0;fontColor=#1A1A1A;" vertex="1" parent="1">
          <mxGeometry x="399.59000000000003" y="330" width="130" height="30" as="geometry" />
        </mxCell>
        <mxCell id="oGfjhjowSKPKWQti_45B-49" value="&lt;font color=&quot;#ffffff&quot; style=&quot;font-size: 14px&quot;&gt;&lt;b&gt;SQLite DB&lt;/b&gt;&lt;/font&gt;" style="text;html=1;strokeColor=none;fillColor=none;align=center;verticalAlign=middle;whiteSpace=wrap;rounded=0;sketch=0;fontColor=#1A1A1A;" vertex="1" parent="1">
          <mxGeometry x="290.00000000000006" y="770" width="130" height="30" as="geometry" />
        </mxCell>
        <mxCell id="oGfjhjowSKPKWQti_45B-50" style="edgeStyle=orthogonalEdgeStyle;curved=0;rounded=1;sketch=0;orthogonalLoop=1;jettySize=auto;html=1;exitX=0;exitY=0.5;exitDx=0;exitDy=0;fontColor=#FFFFFF;strokeColor=#FFFFFF;" edge="1" parent="1">
          <mxGeometry relative="1" as="geometry">
            <mxPoint x="800" y="745" as="targetPoint" />
            <mxPoint x="1070" y="745" as="sourcePoint" />
          </mxGeometry>
        </mxCell>
        <mxCell id="oGfjhjowSKPKWQti_45B-51" value="" style="endArrow=classic;html=1;fontColor=#FFFFFF;strokeColor=#FFFFFF;startArrow=open;startFill=0;" edge="1" parent="1">
          <mxGeometry width="50" height="50" relative="1" as="geometry">
            <mxPoint x="520" y="620" as="sourcePoint" />
            <mxPoint x="420" y="560" as="targetPoint" />
          </mxGeometry>
        </mxCell>
        <mxCell id="oGfjhjowSKPKWQti_45B-54" value="" style="endArrow=classic;html=1;fontColor=#FFFFFF;strokeColor=#FFFFFF;startArrow=open;startFill=0;" edge="1" parent="1">
          <mxGeometry width="50" height="50" relative="1" as="geometry">
            <mxPoint x="520" y="680" as="sourcePoint" />
            <mxPoint x="420" y="730" as="targetPoint" />
          </mxGeometry>
        </mxCell>
        <mxCell id="oGfjhjowSKPKWQti_45B-60" value="&lt;font style=&quot;font-size: 14px&quot;&gt;(Running&amp;nbsp; Locally Continuously)&lt;/font&gt;" style="text;html=1;strokeColor=none;fillColor=none;align=center;verticalAlign=middle;whiteSpace=wrap;rounded=0;sketch=0;fontColor=#FFFFFF;" vertex="1" parent="1">
          <mxGeometry x="590" y="800" width="210" height="20" as="geometry" />
        </mxCell>
        <mxCell id="oGfjhjowSKPKWQti_45B-61" value="" style="endArrow=classic;html=1;fontColor=#FFFFFF;strokeColor=#FFFFFF;startArrow=open;startFill=0;" edge="1" parent="1">
          <mxGeometry width="50" height="50" relative="1" as="geometry">
            <mxPoint x="590" y="280" as="sourcePoint" />
            <mxPoint x="520" y="280" as="targetPoint" />
          </mxGeometry>
        </mxCell>
        <mxCell id="oGfjhjowSKPKWQti_45B-62" value="&lt;font style=&quot;font-size: 14px&quot;&gt;&lt;b&gt;/commands&lt;/b&gt;&lt;/font&gt;" style="text;html=1;strokeColor=none;fillColor=none;align=center;verticalAlign=middle;whiteSpace=wrap;rounded=0;sketch=0;fontColor=#FFFFFF;" vertex="1" parent="1">
          <mxGeometry x="619.18" y="180" width="200" height="20" as="geometry" />
        </mxCell>
        <mxCell id="oGfjhjowSKPKWQti_45B-65" value="&lt;font style=&quot;font-size: 14px&quot;&gt;&lt;b&gt;/commands/:id&lt;/b&gt;&lt;/font&gt;" style="text;html=1;strokeColor=none;fillColor=none;align=center;verticalAlign=middle;whiteSpace=wrap;rounded=0;sketch=0;fontColor=#FFFFFF;" vertex="1" parent="1">
          <mxGeometry x="619.18" y="210" width="200" height="20" as="geometry" />
        </mxCell>
        <mxCell id="oGfjhjowSKPKWQti_45B-67" value="&lt;b&gt;&lt;font style=&quot;font-size: 14px&quot;&gt;Get Commands From REST and Execute them and Update the status of the Commands back to the backend&lt;/font&gt;&lt;/b&gt;" style="text;html=1;strokeColor=none;fillColor=none;align=center;verticalAlign=middle;whiteSpace=wrap;rounded=0;sketch=0;fontColor=#FFFFFF;" vertex="1" parent="1">
          <mxGeometry x="740" y="450" width="210" height="60" as="geometry" />
        </mxCell>
        <mxCell id="oGfjhjowSKPKWQti_45B-68" value="&lt;b&gt;&lt;font style=&quot;font-size: 18px&quot; color=&quot;#000000&quot;&gt;Polling&lt;/font&gt;&lt;/b&gt;" style="ellipse;shape=cloud;whiteSpace=wrap;html=1;rounded=0;sketch=0;fontColor=#FFFFFF;strokeColor=#FFFFFF;fillColor=#EEEEEE;" vertex="1" parent="1">
          <mxGeometry x="520" y="402.5" width="150.82" height="125" as="geometry" />
        </mxCell>
        <mxCell id="oGfjhjowSKPKWQti_45B-72" value="&lt;b&gt;&lt;font style=&quot;font-size: 14px&quot;&gt;Command&lt;/font&gt;&lt;/b&gt;" style="text;html=1;strokeColor=none;fillColor=none;align=center;verticalAlign=middle;whiteSpace=wrap;rounded=0;sketch=0;fontColor=#FFFFFF;" vertex="1" parent="1">
          <mxGeometry x="870" y="575" width="160" height="20" as="geometry" />
        </mxCell>
        <mxCell id="oGfjhjowSKPKWQti_45B-73" value="&lt;b&gt;&lt;font style=&quot;font-size: 14px&quot;&gt;Speech To Text&lt;/font&gt;&lt;/b&gt;" style="text;html=1;strokeColor=none;fillColor=none;align=center;verticalAlign=middle;whiteSpace=wrap;rounded=0;sketch=0;fontColor=#FFFFFF;" vertex="1" parent="1">
          <mxGeometry x="839.18" y="715" width="213" height="20" as="geometry" />
        </mxCell>
        <mxCell id="oGfjhjowSKPKWQti_45B-74" value="" style="endArrow=classic;html=1;fontColor=#FFFFFF;strokeColor=#FFFFFF;entryX=0.017;entryY=0.65;entryDx=0;entryDy=0;entryPerimeter=0;" edge="1" parent="1" target="oGfjhjowSKPKWQti_45B-13">
          <mxGeometry width="50" height="50" relative="1" as="geometry">
            <mxPoint x="804.18" y="612.5" as="sourcePoint" />
            <mxPoint x="1064.18" y="612.5" as="targetPoint" />
          </mxGeometry>
        </mxCell>
        <mxCell id="oGfjhjowSKPKWQti_45B-75" value="" style="endArrow=classic;html=1;fontColor=#FFFFFF;strokeColor=#FFFFFF;entryX=0.017;entryY=0.725;entryDx=0;entryDy=0;entryPerimeter=0;" edge="1" parent="1" target="oGfjhjowSKPKWQti_45B-14">
          <mxGeometry width="50" height="50" relative="1" as="geometry">
            <mxPoint x="800" y="758" as="sourcePoint" />
            <mxPoint x="1065" y="760" as="targetPoint" />
          </mxGeometry>
        </mxCell>
        <mxCell id="oGfjhjowSKPKWQti_45B-76" value="&lt;b&gt;&lt;font style=&quot;font-size: 14px&quot;&gt;Voice Response&lt;/font&gt;&lt;/b&gt;" style="text;html=1;strokeColor=none;fillColor=none;align=center;verticalAlign=middle;whiteSpace=wrap;rounded=0;sketch=0;fontColor=#FFFFFF;" vertex="1" parent="1">
          <mxGeometry x="839.18" y="760" width="213" height="20" as="geometry" />
        </mxCell>
        <mxCell id="oGfjhjowSKPKWQti_45B-77" value="&lt;b&gt;&lt;font style=&quot;font-size: 14px&quot;&gt;Voice Response&lt;/font&gt;&lt;/b&gt;" style="text;html=1;strokeColor=none;fillColor=none;align=center;verticalAlign=middle;whiteSpace=wrap;rounded=0;sketch=0;fontColor=#FFFFFF;" vertex="1" parent="1">
          <mxGeometry x="839.18" y="612.5" width="213" height="20" as="geometry" />
        </mxCell>
        <mxCell id="oGfjhjowSKPKWQti_45B-78" value="&lt;b&gt;&lt;font style=&quot;font-size: 14px&quot;&gt;Voice Response&lt;/font&gt;&lt;/b&gt;" style="text;html=1;strokeColor=none;fillColor=none;align=center;verticalAlign=middle;whiteSpace=wrap;rounded=0;sketch=0;fontColor=#FFFFFF;rotation=22;" vertex="1" parent="1">
          <mxGeometry x="827" y="382.5" width="213" height="20" as="geometry" />
        </mxCell>
        <mxCell id="oGfjhjowSKPKWQti_45B-79" value="&lt;b&gt;&lt;font style=&quot;font-size: 14px&quot;&gt;Speech To Text&lt;/font&gt;&lt;/b&gt;" style="text;html=1;strokeColor=none;fillColor=none;align=center;verticalAlign=middle;whiteSpace=wrap;rounded=0;sketch=0;fontColor=#FFFFFF;rotation=24;" vertex="1" parent="1">
          <mxGeometry x="857" y="330" width="213" height="20" as="geometry" />
        </mxCell>
        <mxCell id="oGfjhjowSKPKWQti_45B-80" value="" style="shape=image;html=1;verticalAlign=top;verticalLabelPosition=bottom;labelBackgroundColor=#ffffff;imageAspect=0;aspect=fixed;image=https://cdn4.iconfinder.com/data/icons/basic-ui-2-line/32/speaker-high-sound-volume-voice-128.png;rounded=0;sketch=0;fontColor=#FFFFFF;strokeColor=#FFFFFF;fillColor=#EEEEEE;" vertex="1" parent="1">
          <mxGeometry x="1210" y="482.5" width="37.5" height="37.5" as="geometry" />
        </mxCell>
        <mxCell id="oGfjhjowSKPKWQti_45B-83" value="" style="endArrow=classic;html=1;fontColor=#FFFFFF;strokeColor=#FFFFFF;" edge="1" parent="1">
          <mxGeometry width="50" height="50" relative="1" as="geometry">
            <mxPoint x="1200" y="480" as="sourcePoint" />
            <mxPoint x="1270" y="480" as="targetPoint" />
            <Array as="points">
              <mxPoint x="1230" y="480" />
            </Array>
          </mxGeometry>
        </mxCell>
        <mxCell id="oGfjhjowSKPKWQti_45B-84" value="" style="endArrow=classic;html=1;fontColor=#FFFFFF;strokeColor=#FFFFFF;" edge="1" parent="1">
          <mxGeometry width="50" height="50" relative="1" as="geometry">
            <mxPoint x="1200" y="640" as="sourcePoint" />
            <mxPoint x="1270" y="640" as="targetPoint" />
            <Array as="points">
              <mxPoint x="1230" y="640" />
            </Array>
          </mxGeometry>
        </mxCell>
        <mxCell id="oGfjhjowSKPKWQti_45B-85" value="" style="endArrow=classic;html=1;fontColor=#FFFFFF;strokeColor=#FFFFFF;" edge="1" parent="1">
          <mxGeometry width="50" height="50" relative="1" as="geometry">
            <mxPoint x="1200" y="779" as="sourcePoint" />
            <mxPoint x="1270" y="779" as="targetPoint" />
            <Array as="points">
              <mxPoint x="1230" y="779" />
            </Array>
          </mxGeometry>
        </mxCell>
        <mxCell id="oGfjhjowSKPKWQti_45B-86" value="" style="shape=image;html=1;verticalAlign=top;verticalLabelPosition=bottom;labelBackgroundColor=#ffffff;imageAspect=0;aspect=fixed;image=https://cdn4.iconfinder.com/data/icons/basic-ui-2-line/32/speaker-high-sound-volume-voice-128.png;rounded=0;sketch=0;fontColor=#FFFFFF;strokeColor=#FFFFFF;fillColor=#EEEEEE;" vertex="1" parent="1">
          <mxGeometry x="1210" y="642.5" width="37.5" height="37.5" as="geometry" />
        </mxCell>
        <mxCell id="oGfjhjowSKPKWQti_45B-87" value="" style="shape=image;html=1;verticalAlign=top;verticalLabelPosition=bottom;labelBackgroundColor=#ffffff;imageAspect=0;aspect=fixed;image=https://cdn4.iconfinder.com/data/icons/basic-ui-2-line/32/speaker-high-sound-volume-voice-128.png;rounded=0;sketch=0;fontColor=#FFFFFF;strokeColor=#FFFFFF;fillColor=#EEEEEE;" vertex="1" parent="1">
          <mxGeometry x="1210" y="782.5" width="37.5" height="37.5" as="geometry" />
        </mxCell>
        <mxCell id="oGfjhjowSKPKWQti_45B-88" value="&lt;font style=&quot;font-size: 14px&quot;&gt;(Text-To-Speech)&lt;/font&gt;" style="text;html=1;strokeColor=none;fillColor=none;align=center;verticalAlign=middle;whiteSpace=wrap;rounded=0;sketch=0;fontColor=#FFFFFF;" vertex="1" parent="1">
          <mxGeometry x="840.68" y="782.5" width="210" height="20" as="geometry" />
        </mxCell>
      </root>
    </mxGraphModel>
  </diagram>
</mxfile>
